<?xml version="1.0" encoding="utf-8"?>
<svg version="1.1" x="0px" y="0px" viewBox="0 0 32 40" enable-background="new 0 0 32 32" xmlns="http://www.w3.org/2000/svg">
  <path d="M20.911,27.553l-1.789,0.895C19.097,28.4,18.315,27,16.017,27s-3.08,1.4-3.112,1.46l-1.782-0.907  C11.175,27.448,12.44,25,16.017,25C19.594,25,20.859,27.448,20.911,27.553z M12.828,21.328C12.073,22.084,11.068,22.5,10,22.5  s-2.073-0.416-2.828-1.172C6.417,20.573,6,19.568,6,18.5s0.417-2.073,1.172-2.829c1.511-1.511,4.146-1.511,5.656,0  C13.583,16.427,14,17.432,14,18.5S13.583,20.573,12.828,21.328z M12,18.5c0-0.534-0.208-1.036-0.586-1.414S10.534,16.5,10,16.5  s-1.036,0.208-1.414,0.586S8,17.966,8,18.5s0.208,1.036,0.586,1.414c0.756,0.756,2.072,0.756,2.828,0  C11.792,19.536,12,19.034,12,18.5z M19,23.5l-3-5l-3,5H19z M24.828,15.672C25.584,16.427,26,17.432,26,18.5  s-0.416,2.073-1.172,2.828C24.073,22.084,23.068,22.5,22,22.5s-2.073-0.416-2.828-1.172C18.416,20.573,18,19.568,18,18.5  s0.416-2.073,1.172-2.829C19.927,14.917,20.932,14.5,22,14.5S24.073,14.917,24.828,15.672z M24,18.5  c0-0.534-0.208-1.036-0.586-1.414S22.534,16.5,22,16.5s-1.036,0.208-1.414,0.586S20,17.966,20,18.5s0.208,1.036,0.586,1.414  c0.756,0.756,2.072,0.756,2.828,0C23.792,19.536,24,19.034,24,18.5z M32,19.5v3.994c-0.02,1.735-0.965,3.472-2.999,3.901V29  c0,1.206-0.799,3-3,3H6c-1.206,0-3-0.799-3-3v-1.604c-2.034-0.429-2.979-2.164-3-3.89V19.5c0-2.268,1.391-3.499,3-3.869V13  c0-1.206,0.799-3,3-3h9V5.816C13.839,5.402,13,4.302,13,3c0-1.654,1.346-3,3-3s3,1.346,3,3c0,1.302-0.839,2.402-2,2.816V10h9.001  c1.206,0,3,0.799,3,3v2.631C30.61,16.001,32,17.232,32,19.5z M3,17.705c-0.534,0.242-1,0.753-1,1.795v3.994  c0.007,0.564,0.166,1.432,1,1.813V17.705z M15,3c0,0.551,0.449,1,1,1s1-0.449,1-1s-0.449-1-1-1S15,2.449,15,3z M27.001,13  c0-0.805-0.55-0.988-1.012-1H6c-0.805,0-0.988,0.55-1,1.012V29c0,0.806,0.55,0.988,1.012,1h19.99c0.806,0,0.988-0.55,1-1.012V13z   M30,19.5c0-1.042-0.465-1.552-0.999-1.795v7.603c0.834-0.383,0.992-1.252,0.999-1.825V19.5z" style="fill: rgb(255, 255, 255);"/>
  <text x="0" y="47" fill="#000000" font-size="5px" font-weight="bold" font-family="'Helvetica Neue', Helvetica, Arial-Unicode, Arial, Sans-serif" style="white-space: pre;">Created by Sebastian Belalcazar Lareo</text>
  <text x="0" y="52" fill="#000000" font-size="5px" font-weight="bold" font-family="'Helvetica Neue', Helvetica, Arial-Unicode, Arial, Sans-serif" style="white-space: pre;">from the Noun Project</text>
</svg>